:SAMPLES-PER-SECOND 30
:FULLY-SPECIFIED
:DEGREES
395
root  -4.17729 40.7481 0.185803 -3.62631 -55.9854 5.94446
RightUpLeg  8.56438 -3.00064 0.140837
RightLeg  -7.08074 -48.0059 5.67997
RightFoot  -4.23659 -0.238696 3.37603
RightToes  -3.10678e-008 1.75238e-005 3.56266e-009
Spine  -2.7786 8.49734 4.92453
Spine1  1.67732 10.5953 -10.5273
HEad  -0.959669 -11.4239 11.6822
LeftShoulder1  1.83598 -2.60659 -23.8058
LeftArm  -38.9548 27.8374 -53.0377
LeftForeArm  57.6824 -17.429 -2.69206
LeftHand  -0.654938 -1.92592 10.5747
RightShoulder  0.200996 -2.1748 7.7445
RightArm  -60.0538 38.5795 -1.93947
RightForeArm  126.048 68.8871 149.236
RightHand  0.244068 10.4973 1.35946
LeftUpLeg  -2.17896 -1.93784 -0.160919
LeftLeg  0.289026 -15.7203 0.228784
LeftFoot  0.108088 0.320991 -3.20914
LeftToes  4.76857e-008 1.46588e-008 1.31384e-009
396
root  -4.20572 40.7166 0.151886 -3.7222 -53.3015 5.79245
RightUpLeg  8.87885 -3.13168 0.353568
RightLeg  -6.88371 -50.5019 5.68137
RightFoot  -4.42837 -0.238884 3.45493
RightToes  -3.10678e-008 1.75238e-005 3.56266e-009
Spine  -2.16069 9.66013 6.08403
Spine1  1.96071 12.0115 -11.6085
HEad  -1.40535 -11.3828 12.2779
LeftShoulder1  1.70127 -2.2109 -23.5093
LeftArm  -39.0765 28.2201 -53.2627
LeftForeArm  57.729 -17.6892 -2.64315
LeftHand  -0.692888 -2.05757 11.0066
RightShoulder  0.239282 -1.96165 8.09189
RightArm  -59.371 39.1697 -1.21189
RightForeArm  126.274 69.2826 148.646
RightHand  0.153849 10.4759 0.705715
LeftUpLeg  -2.45454 -2.37776 -0.491057
LeftLeg  0.866979 -17.7532 0.349838
LeftFoot  -0.0190569 0.327349 -3.30366
LeftToes  4.76857e-008 1.46588e-008 1.31384e-009
397
root  -4.24807 40.6847 0.116052 -3.96017 -51.1318 5.78519
RightUpLeg  9.2983 -3.44643 0.373897
RightLeg  -6.93662 -52.3024 6.00928
RightFoot  -4.69447 -0.241914 3.61483
RightToes  -3.10678e-008 1.75238e-005 3.56266e-009
Spine  -2.15224 10.7637 6.84428
Spine1  2.86319 13.4212 -12.4817
HEad  -1.8071 -11.4224 12.9671
LeftShoulder1  1.61372 -2.00037 -23.0373
LeftArm  -40.2822 28.4479 -53.4691
LeftForeArm  60.2129 -17.6079 -2.32513
LeftHand  -0.694127 -2.73985 10.119
RightShoulder  0.388791 -1.18716 9.51255
RightArm  -59.4816 38.8108 -1.4965
RightForeArm  126.831 69.4471 148.451
RightHand  0.224738 10.6451 1.2027
LeftUpLeg  -2.69416 -2.7966 -0.807735
LeftLeg  1.5683 -19.42 0.383141
LeftFoot  -0.215874 0.340433 -3.49292
LeftToes  4.76857e-008 1.46588e-008 1.31384e-009
398
root  -4.2761 40.6586 0.0723663 -3.87131 -49.3173 5.57312
RightUpLeg  9.61046 -3.57414 0.578175
RightLeg  -7.4927 -53.9545 6.70762
RightFoot  -4.77601 -0.243249 3.67945
RightToes  -3.10678e-008 1.75238e-005 3.56266e-009
Spine  -1.94499 11.4952 7.91236
Spine1  3.55064 14.445 -13.5038
HEad  -2.32556 -11.3084 12.6312
LeftShoulder1  1.6581 -2.14591 -23.066
LeftArm  -39.9552 28.9007 -52.7902
LeftForeArm  60.5615 -17.6006 -2.36662
LeftHand  -0.639958 -2.55895 9.57136
RightShoulder  0.515526 -0.550629 10.2877
RightArm  -59.9263 38.0851 -1.64442
RightForeArm  126.797 69.3753 148.562
RightHand  0.268055 10.7863 1.49733
LeftUpLeg  -3.07243 -3.03481 -0.895735
LeftLeg  2.1963 -20.9852 0.348138
LeftFoot  -0.392392 0.355214 -3.68143
LeftToes  4.76857e-008 1.46588e-008 1.31384e-009
399
root  -4.29583 40.6457 0.0338546 -3.85272 -48.0342 5.59906
RightUpLeg  9.58609 -3.63188 0.666601
RightLeg  -7.48721 -55.1891 6.80222
RightFoot  -4.88572 -0.252177 3.84018
RightToes  -3.10678e-008 1.75238e-005 3.56266e-009
Spine  -2.14913 11.9286 7.73928
Spine1  4.54588 14.8906 -12.7592
HEad  -2.68908 -9.7037 11.3891
LeftShoulder1  1.68281 -2.05603 -24.0301
LeftArm  -41.1345 28.9734 -52.2104
LeftForeArm  62.589 -17.168 -2.06506
LeftHand  -0.661284 -3.10443 9.27181
RightShoulder  0.510946 -0.516329 9.86368
RightArm  -60.1283 38.4158 -1.23475
RightForeArm  126.14 69.5197 148.247
RightHand  0.280192 10.5991 1.60568
LeftUpLeg  -3.29186 -3.27356 -1.0597
LeftLeg  2.29838 -21.9957 0.401749
LeftFoot  -0.329529 0.373305 -3.85214
LeftToes  4.76857e-008 1.46588e-008 1.31384e-009
400
root  -4.30302 40.6439 -0.0172806 -3.6391 -47.3306 5.5986
RightUpLeg  9.32027 -3.54799 0.815832
RightLeg  -7.53409 -55.9828 6.86338
RightFoot  -4.89759 -0.246217 3.75225
RightToes  -3.10678e-008 1.75238e-005 3.56266e-009
Spine  -1.73417 12.1108 8.3845
Spine1  4.36874 15.2976 -13.9394
HEad  -2.62263 -9.10118 11.2912
LeftShoulder1  1.60097 -1.85403 -23.6275
LeftArm  -41.3668 29.2739 -52.2379
LeftForeArm  62.1945 -16.7319 -2.08797
LeftHand  -0.690352 -2.90282 9.89203
RightShoulder  0.48772 -0.677738 10.0437
RightArm  -59.8948 38.34 -0.747572
RightForeArm  126.414 69.3477 148.559
RightHand  0.191773 10.1014 1.02307
LeftUpLeg  -3.57431 -3.37157 -1.07402
LeftLeg  2.14587 -22.5824 0.480115
LeftFoot  -0.164015 0.40089 -4.08698
LeftToes  4.76857e-008 1.46588e-008 1.31384e-009
401
root  -4.30494 40.6463 -0.0501601 -3.49106 -47.0172 5.58997
RightUpLeg  9.17437 -3.53186 0.864277
RightLeg  -7.64267 -56.2664 7.01939
RightFoot  -4.91543 -0.246073 3.74116
RightToes  -3.10678e-008 1.75238e-005 3.56266e-009
Spine  -1.51878 12.0297 8.529
Spine1  4.19725 15.3066 -14.4684
HEad  -2.71212 -9.1576 11.3312
LeftShoulder1  1.62043 -1.94767 -23.4616
LeftArm  -42.2724 29.651 -52.4793
LeftForeArm  62.6491 -16.784 -1.87286
LeftHand  -0.671881 -3.09987 9.4255
RightShoulder  0.478926 -0.718057 9.97931
RightArm  -59.52 38.2785 -0.566457
RightForeArm  126.593 69.2492 148.738
RightHand  0.194732 10.1763 1.03679
LeftUpLeg  -3.68616 -3.45722 -1.09743
LeftLeg  1.92625 -22.7406 0.629843
LeftFoot  -0.0402621 0.419004 -4.23261
LeftToes  4.76857e-008 1.46588e-008 1.31384e-009
402
root  -4.29166 40.6498 -0.0788761 -3.38452 -47.3397 5.63116
RightUpLeg  8.91826 -3.41149 0.911579
RightLeg  -7.50013 -56.0737 6.80075
RightFoot  -4.86913 -0.244577 3.6998
RightToes  -3.10678e-008 1.75238e-005 3.56266e-009
Spine  -1.28803 11.8571 8.27979
Spine1  3.94721 15.111 -14.4288
HEad  -2.83573 -8.40855 10.7586
LeftShoulder1  1.60411 -1.88199 -23.5258
LeftArm  -42.105 29.493 -52.6499
LeftForeArm  62.6248 -16.4469 -1.92203
LeftHand  -0.679918 -2.69595 9.97664
RightShoulder  0.510906 -0.498089 9.74369
RightArm  -59.3357 38.0249 -0.622413
RightForeArm  127.055 69.3783 148.591
RightHand  0.189673 10.6656 0.946552
LeftUpLeg  -3.76557 -3.52357 -1.07883
LeftLeg  1.74093 -22.319 0.750272
LeftFoot  0.0649032 0.414045 -4.15391
LeftToes  4.76857e-008 1.46588e-008 1.31384e-009
403
root  -4.29013 40.6658 -0.0757852 -3.54684 -48.2702 5.72519
RightUpLeg  9.0005 -3.41841 0.777203
RightLeg  -7.4404 -54.9848 6.67249
RightFoot  -4.74909 -0.239293 3.59452
RightToes  -3.10678e-008 1.75238e-005 3.56266e-009
Spine  -1.37451 11.6679 8.06004
Spine1  4.36678 14.9895 -14.3963
HEad  -3.04703 -9.30544 11.2999
LeftShoulder1  1.669 -2.08678 -23.5844
LeftArm  -42.2058 28.9578 -53.0952
LeftForeArm  63.8236 -16.4642 -1.77797
LeftHand  -0.686992 -2.80422 9.9513
RightShoulder  0.506456 -0.602249 10.2555
RightArm  -59.6456 37.9861 -1.54554
RightForeArm  126.765 69.347 148.604
RightHand  0.236311 10.843 1.26149
LeftUpLeg  -3.435 -3.41212 -1.0229
LeftLeg  1.41652 -21.3482 0.809567
LeftFoot  0.14674 0.42501 -4.24557
LeftToes  4.76857e-008 1.46588e-008 1.31384e-009
404
root  -4.29148 40.6933 -0.0209195 -4.14032 -50.1806 6.08118
RightUpLeg  9.19667 -3.72967 0.170156
RightLeg  -6.62495 -52.3737 6.02045
RightFoot  -4.68076 -0.242555 3.62093
RightToes  -3.10678e-008 1.75238e-005 3.56266e-009
Spine  -2.11561 11.4863 7.11185
Spine1  5.47894 14.7061 -13.0726
HEad  -3.37182 -10.0308 11.1288
LeftShoulder1  1.85525 -2.60987 -24.1266
LeftArm  -41.7505 28.6639 -53.3431
LeftForeArm  63.6656 -16.6651 -1.87655
LeftHand  -0.644741 -2.40959 9.80452
RightShoulder  0.45678 -0.837739 9.9131
RightArm  -59.5118 38.2767 -1.36527
RightForeArm  126.637 69.4588 148.408
RightHand  0.184859 10.3398 0.948133
LeftUpLeg  -2.50133 -3.2322 -1.0465
LeftLeg  0.683081 -19.4162 0.904554
LeftFoot  0.224123 0.433508 -4.29339
LeftToes  4.76857e-008 1.46588e-008 1.31384e-009
405
root  -4.25873 40.7408 0.0428121 -4.42078 -53.2893 6.22809
RightUpLeg  8.92495 -3.9455 -0.361893
RightLeg  -5.32273 -48.7036 5.01607
RightFoot  -4.55251 -0.250644 3.7004
RightToes  -3.10678e-008 1.75238e-005 3.56266e-009
Spine  -2.2134 10.824 7.01574
Spine1  5.33595 14.0184 -13.1611
HEad  -3.18087 -9.47073 10.6322
LeftShoulder1  1.8363 -2.6212 -23.7373
LeftArm  -42.0537 28.8193 -54.4096
LeftForeArm  64.0589 -16.8804 -1.80609
LeftHand  -0.676385 -2.25766 10.4661
RightShoulder  0.493241 -0.647974 10.0588
RightArm  -58.9713 38.6913 -0.829501
RightForeArm  126.91 69.5351 148.319
RightHand  0.204162 10.1005 1.11999
LeftUpLeg  -1.63208 -2.70117 -0.715749
LeftLeg  -0.126161 -16.7569 0.818567
LeftFoot  0.338904 0.43137 -4.23711
LeftToes  4.76857e-008 1.46588e-008 1.31384e-009
406
root  -4.24568 40.7811 0.110117 -4.29654 -57.1896 5.87643
RightUpLeg  8.81487 -3.50027 -0.222074
RightLeg  -5.03819 -45.1533 4.43309
RightFoot  -4.13134 -0.26182 3.70738
RightToes  -3.10678e-008 1.75238e-005 3.56266e-009
Spine  -2.94021 10.0593 6.45303
Spine1  5.6888 13.0251 -12.152
HEad  -3.06823 -9.77213 10.456
LeftShoulder1  1.90416 -2.77287 -24.1185
LeftArm  -42.2644 28.4773 -54.7758
LeftForeArm  64.7614 -16.5087 -1.70099
LeftHand  -0.684774 -2.13753 10.7527
RightShoulder  0.539253 -0.381776 10.0495
RightArm  -58.6293 38.5731 -0.653438
RightForeArm  127.72 69.5564 148.387
RightHand  0.116718 10.6987 0.417836
LeftUpLeg  -0.90368 -1.9226 0.00357088
LeftLeg  -0.355108 -13.758 0.597924
LeftFoot  0.0205007 0.405253 -4.07562
LeftToes  4.76857e-008 1.46588e-008 1.31384e-009
407
root  -4.21889 40.8135 0.177235 -4.08447 -61.7486 5.55795
RightUpLeg  8.45659 -3.12829 -0.18672
RightLeg  -4.66346 -41.0522 3.88361
RightFoot  -3.80418 -0.255016 3.47678
RightToes  -3.10678e-008 1.75238e-005 3.56266e-009
Spine  -3.46677 9.31498 6.2739
Spine1  5.56537 12.1542 -11.9677
HEad  -3.0905 -10.4973 10.5686
LeftShoulder1  2.14488 -3.58712 -24.0221
LeftArm  -42.611 28.1598 -55.1682
LeftForeArm  66.0143 -15.891 -1.4869
LeftHand  -0.675504 -2.14418 10.607
RightShoulder  0.44168 -0.926363 9.91783
RightArm  -58.3704 37.6524 0.268305
RightForeArm  127.993 69.3222 148.797
RightHand  0.158098 10.7217 0.715353
LeftUpLeg  -0.196131 -1.19409 0.685396
LeftLeg  -0.599701 -10.1224 0.362313
LeftFoot  -0.283673 0.371326 -3.81826
LeftToes  4.76857e-008 1.46588e-008 1.31384e-009
408
root  -4.20683 40.8365 0.247663 -3.58548 -66.9869 5.08478
RightUpLeg  8.05025 -2.6488 -0.0534209
RightLeg  -4.79278 -36.6701 3.69762
RightFoot  -3.52907 -0.226871 2.97024
RightToes  -3.10678e-008 1.75238e-005 3.56266e-009
Spine  -4.84782 8.17698 5.11965
Spine1  6.38456 10.6774 -10.334
HEad  -3.62151 -10.6593 10.0773
LeftShoulder1  2.19515 -3.70277 -24.2503
LeftArm  -42.9794 27.6205 -55.7589
LeftForeArm  67.347 -15.5645 -1.24548
LeftHand  -0.729826 -2.68759 10.6686
RightShoulder  0.436797 -0.960103 9.96365
RightArm  -58.949 37.1993 0.338655
RightForeArm  127.721 69.3996 148.639
RightHand  0.139952 10.4451 0.607571
LeftUpLeg  0.397959 -0.466376 1.36636
LeftLeg  -0.641516 -5.90053 0.163129
LeftFoot  -0.57322 0.304316 -3.19203
LeftToes  4.76857e-008 1.46588e-008 1.31384e-009
